# xmcd
#
# Track frame offsets:
#	150
#	12685
#	25910
#	39615
#	53845
#	68597
#	81732
#	103725
#	120192
#	131695
#	147220
#	166905
#	186262
#	198800
#
# Disc length: 2831 seconds
#
# Revision: 0
# Processed by: cddbd v1.5.2PL0 Copyright (c) Steve Scherf et al.
# Submitted via: audiograbber 1.83.01
#
DISCID=c10b0d0e
DTITLE=John Glenn - Live
DYEAR=1900
DGENRE=
TTITLE0=Golden Dreams
TTITLE1=Our House Is A Home
TTITLE2=Hometown On The Foyle
TTITLE3=Guitars And Cadillacs
TTITLE4=Lovely Leitrim
TTITLE5=Sunnyside Of The Mountain
TTITLE6=Fields Of Athenry
TTITLE7=Pass Me By
TTITLE8=Little Country Town In Ireland
TTITLE9=Crystal Chandeliers
TTITLE10=If We Only Had Old Ireland Over Here
TTITLE11=Fort Worth
TTITLE12=Pretty Little Girl From Omagh
TTITLE13=The Streets Of Bakersfield
EXTD=
EXTT0=
EXTT1=
EXTT2=
EXTT3=
EXTT4=
EXTT5=
EXTT6=
EXTT7=
EXTT8=
EXTT9=
EXTT10=
EXTT11=
EXTT12=
EXTT13=
PLAYORDER=
